<?xml version="1.0" encoding="UTF-8" standalone="no"?>
<!-- Created with Inkscape (http://www.inkscape.org/) -->

<svg
   version="1.1"
   id="svg1"
   width="783.328"
   height="876.60699"
   viewBox="0 0 783.328 876.60699"
   sodipodi:docname="satky_korjattu1-7-1.svg"
   inkscape:version="1.4 (86a8ad7, 2024-10-11)"
   xmlns:inkscape="http://www.inkscape.org/namespaces/inkscape"
   xmlns:sodipodi="http://sodipodi.sourceforge.net/DTD/sodipodi-0.dtd"
   xmlns="http://www.w3.org/2000/svg"
   xmlns:svg="http://www.w3.org/2000/svg">
  <defs
     id="defs1" />
  <sodipodi:namedview
     id="namedview1"
     pagecolor="#ffffff"
     bordercolor="#000000"
     borderopacity="0.25"
     inkscape:showpageshadow="2"
     inkscape:pageopacity="0.0"
     inkscape:pagecheckerboard="0"
     inkscape:deskcolor="#d1d1d1"
     inkscape:zoom="5.6568543"
     inkscape:cx="322.61747"
     inkscape:cy="509.7356"
     inkscape:window-width="2560"
     inkscape:window-height="1411"
     inkscape:window-x="-9"
     inkscape:window-y="709"
     inkscape:window-maximized="1"
     inkscape:current-layer="g1" />
  <g
     inkscape:groupmode="layer"
     inkscape:label="Image"
     id="g1">
    <path
       style="fill:#000000;stroke-width:0.3571;stroke-linecap:round"
       d="m 122.81285,382.88713 c 12.38449,86.69142 12.38449,86.69142 12.38449,86.69142"
       id="path2" />
    <path
       style="fill:#000000;stroke-width:0.3571;stroke-linecap:round"
       d="M 126.94102,51.602039 268.3306,30.961223"
       id="path4" />
    <path
       style="display:inline;fill:#000000;stroke-width:0.3571;stroke-linecap:round"
       d="m 170.76455,57.377619 18.28969,-3.283934"
       id="path5" />
    <path
       style="display:none;fill:#000000;stroke-width:0.3571;stroke-linecap:round"
       d="m 156.03246,51.721955 1.59636,0.319271"
       id="path6" />
    <rect
       style="fill:#000000;stroke-width:0.3571;stroke-linecap:round"
       id="rect34"
       width="0.40625"
       height="8.96875"
       x="779.5"
       y="784.34375" />
    <path
       style="fill:#000000;stroke-width:0.252508;stroke-linecap:round"
       d="m 342.74431,841.66093 c -3.02819,-15.8264 -5.60638,-28.87584 -5.72934,-28.99881 -0.12295,-0.12296 -4.6457,-1.17245 -10.05056,-2.33225 -11.32469,-2.43004 -25.73131,-6.42399 -41.02731,-11.37395 -5.88181,-1.90346 -10.87205,-3.46079 -11.08941,-3.46079 -0.21737,0 -8.95876,9.62549 -19.42532,21.38998 -10.46657,11.76448 -19.48096,21.76389 -20.03198,22.22097 -0.79693,0.66093 -2.22957,0.14227 -7.00359,-2.53583 -3.30095,-1.8517 -19.60468,-10.95506 -36.23053,-20.22969 -16.62585,-9.27455 -30.22882,-17.17046 -30.22882,-17.54643 0,-0.37597 4.17026,-13.43064 9.26723,-29.0104 l 9.26724,-28.32691 -2.37295,-2.06715 C 165.7551,728.64483 157.03174,720.38384 146.71296,709.67652 l -12.17466,-12.63306 -28.08182,9.33505 c -15.445,5.13425 -28.154884,9.22819 -28.244184,9.09751 -2.795724,-4.08997 -42.856957,-72.09008 -42.856957,-72.74556 0,-0.30806 2.784233,-2.72128 6.187184,-5.3627 13.478829,-10.46245 39.06765,-30.77137 39.06765,-31.00656 0,-0.13716 -1.137657,-3.22001 -2.528126,-6.85077 -5.556094,-14.50796 -12.364032,-39.88184 -14.482448,-53.97755 -0.467586,-3.11127 -1.206716,-6.01517 -1.64251,-6.45311 -0.680195,-0.68355 -11.643443,-2.89962 -46.047186,-9.30781 l -7.0710683,-1.31709 v -42.69083 -42.69083 l 26.5165043,-4.7803 c 14.584077,-2.62917 26.695939,-4.79294 26.915247,-4.80838 0.219309,-0.0154 1.239669,-4.2442 2.267466,-9.39724 2.238893,-11.22507 6.166128,-25.64992 11.344662,-41.66926 l 3.812618,-11.79399 -3.608444,-3.48509 C 72.7005,363.86832 45.870346,339.64899 40.106612,334.65988 c -1.446474,-1.25207 -2.629953,-2.45238 -2.629953,-2.66736 0,-0.21499 6.721608,-12.23669 14.936907,-26.71489 8.215298,-14.4782 17.315134,-30.54013 20.221856,-35.69317 2.906723,-5.15304 5.550407,-9.36917 5.874849,-9.36917 0.324449,0 10.638746,2.86379 22.920669,6.36397 22.23257,6.33597 24.43407,6.85987 24.43407,5.81466 0,-0.93078 -8.92015,-9.27633 -23.04555,-21.56107 -7.424773,-6.45726 -15.195997,-13.59044 -17.269383,-15.85149 -4.451095,-4.85398 -11.086815,-14.88652 -16.048369,-24.26354 l -3.554362,-6.71751 2.256293,-2.27276 c 1.240961,-1.25002 9.233517,-6.13507 17.761241,-10.85566 17.72896,-9.81404 28.7477,-16.91743 36.36459,-23.44297 2.91682,-2.49889 16.75843,-16.22689 30.75915,-30.50667 24.59446,-25.08468 25.46896,-26.07043 25.84351,-29.1313 0.5555,-4.53973 2.50805,-6.24569 7.20476,-6.29487 3.47116,-0.0364 4.70826,-0.62146 17.86746,-8.450777 38.68157,-23.014322 47.05943,-29.894231 82.55055,-67.790616 16.23988,-17.3404657 19.28654,-20.2857777 20.57953,-19.8948965 4.597,1.3897065 11.94186,6.0927665 16.90623,10.8253925 9.35635,8.919579 17.2777,21.026045 24.54342,37.510541 3.37559,7.658553 4.57152,9.499853 11.61404,17.881371 4.71458,5.610971 8.98089,9.98082 10.67939,10.938582 3.34989,1.888965 12.31229,3.949078 24.02463,5.522334 4.65756,0.62562 8.70971,1.517232 9.00479,1.981356 0.29507,0.464116 0.54137,1.537243 0.54732,2.38471 0.009,1.314321 -0.58695,1.658003 -4.05504,2.337632 -11.88536,2.329118 -22.09708,5.213173 -22.09708,6.240771 0,0.94287 3.10407,1.01204 26.38434,0.58793 l 26.38433,-0.48066 2.33409,10.79664 c 8.47507,39.20261 10.67128,48.92109 11.16357,49.39997 0.30539,0.29706 5.01003,1.55281 10.45475,2.79053 11.93088,2.7122 26.8088,7.09765 40.61257,11.97105 l 10.20698,3.60355 4.14511,-4.4426 c 2.27981,-2.44343 11.18085,-12.11134 19.78007,-21.48424 l 15.63495,-17.04164 17.03555,9.50981 c 41.61729,23.23213 53.45156,30.07666 53.45156,30.91449 0,0.49292 -3.81837,13.03258 -8.48528,27.8659 -4.6669,14.83332 -8.48528,27.28815 -8.48528,27.67739 0,0.38926 6.72994,7.3074 14.95541,15.37365 8.22547,8.06626 17.9725,18.007 21.66004,22.09054 3.68756,4.08354 7.06802,7.63882 7.51214,7.90062 0.76446,0.45063 16.47319,-4.79994 45.62519,-15.24999 7.16743,-2.5693 13.3723,-4.6685 13.78858,-4.6649 0.41629,0.004 1.89616,1.99234 3.28861,4.41942 1.39244,2.42708 10.7498,18.51647 20.79418,35.7542 l 18.26252,31.34134 -2.05592,1.99705 c -1.13073,1.09838 -12.23818,10.34255 -24.68326,20.54259 -12.44508,10.20005 -22.61741,18.74443 -22.6052,18.98752 0.0122,0.24308 2.13079,6.80593 4.70793,14.58411 5.64065,17.02427 7.94301,25.31438 10.40428,37.46272 l 1.85957,9.17845 3.87739,0.87186 c 2.13257,0.47951 15.69558,3.33478 30.14008,6.34502 l 26.26272,5.47317 0.47694,19.83186 c 0.26234,10.90753 0.37654,29.69601 0.25379,41.75218 l -0.22317,21.92031 -26.87006,5.40755 c -30.16029,6.06971 -34.29467,6.954 -34.29467,7.33518 0,0.14683 -0.63984,3.58247 -1.42185,7.63478 -1.82462,9.45495 -5.06415,21.19786 -10.89281,39.4851 -2.56075,8.03427 -4.65591,14.99955 -4.65591,15.4784 0,0.47884 0.4515,1.22389 1.00333,1.65567 0.55183,0.43178 8.10903,6.18343 16.79379,12.78143 14.14233,10.74425 28.93409,22.23337 30.5202,23.70586 0.32321,0.30003 -0.0855,1.86496 -0.90821,3.4776 l -1.49582,2.93209 2.10471,6.87476 c 2.55386,8.34149 5.30415,19.18329 7.18406,28.31978 1.0171,4.9433 1.86323,7.28257 3.10505,8.5848 3.01178,3.1582 3.4574,5.43112 1.7544,8.94901 l -1.4927,3.08347 2.22187,1.86958 c 4.28203,3.60307 9.92,13.912 9.92,18.13845 0,1.27328 1.90735,6.09639 4.52082,11.43186 3.59521,7.33956 4.6162,10.17039 4.98651,13.8255 0.25612,2.5279 1.28234,10.64195 2.28042,18.03122 1.57586,11.66627 1.76162,15.0176 1.41118,25.45584 -0.41854,12.46304 -2.08413,28.79855 -3.32178,32.5779 -1.19034,3.63481 -4.77163,6.47038 -9.87991,7.82251 -5.93326,1.57048 -21.42873,1.75702 -26.51374,0.31918 -7.94619,-2.24683 -13.01968,-5.83023 -18.57195,-13.11725 l -3.21345,-4.21747 0.44265,-23.71325 c 0.4978,-26.67164 2.14784,-41.40959 5.97993,-53.41173 1.11751,-3.50018 2.60718,-9.38685 3.31032,-13.08148 0.70315,-3.69463 1.71269,-7.35391 2.2433,-8.13173 1.75617,-2.57408 11.78507,-12.37437 12.66301,-12.37437 0.47418,0 1.22322,-0.43507 1.66453,-0.96684 0.6091,-0.73389 0.55345,-1.17344 -0.2308,-1.82432 -2.00366,-1.6629 -2.69231,-5.32665 -1.52587,-8.11829 0.58499,-1.4 1.55521,-2.73412 2.15611,-2.96472 1.58915,-0.60979 1.38841,-4.66208 -0.67026,-13.53203 -3.21246,-13.84112 -5.45484,-21.38416 -6.35711,-21.38416 -0.73546,0 -10.52054,16.73786 -30.08008,51.45358 -2.03043,3.6038 -3.94347,6.70793 -4.25119,6.89807 -0.30772,0.19021 -5.47852,-1.29655 -11.49065,-3.30389 -6.01214,-2.00728 -11.36958,-3.47867 -11.90542,-3.26971 -0.53584,0.20895 -4.44916,9.24767 -8.69627,20.08613 -10.94125,27.92145 -17.27366,42.6111 -24.51658,56.87253 -16.43459,32.35989 -31.26872,48.22143 -45.1896,48.31929 -6.18143,0.0435 -10.15873,-1.85997 -16.3247,-7.81268 l -4.90924,-4.73946 -2.64128,1.25696 c -1.45271,0.69126 -8.9538,4.92464 -16.6691,9.40742 -11.7378,6.81997 -14.17477,7.99172 -14.92794,7.17762 -0.49507,-0.53513 -7.39463,-9.24612 -15.33236,-19.35775 -21.74698,-27.70282 -21.3341,-27.21187 -22.88703,-27.21364 -0.77781,-9.2e-4 -6.50538,1.76967 -12.72792,3.93462 -13.73121,4.77736 -35.26726,11.04812 -43.57258,12.68727 -3.35276,0.66171 -6.47159,1.43528 -6.93075,1.71904 -0.45916,0.28377 -1.28693,2.45388 -1.83948,4.82247 -0.85522,3.666 -10.23614,53.43451 -10.23614,54.30566 0,0.16653 -18.85323,0.29996 -41.89608,0.29656 l -41.89607,-0.006 z m 89.7623,-4.00796 c 3.19019,-16.67633 6.06134,-30.56306 6.38031,-30.85941 0.31896,-0.29628 5.16259,-1.55387 10.76361,-2.79456 14.28724,-3.16479 27.07986,-6.88227 43.91,-12.76002 7.97263,-2.78438 14.97561,-5.21018 15.56218,-5.3907 0.72603,-0.22337 4.43824,4.02917 11.62864,13.3214 19.85035,25.65277 26.67373,33.90563 27.70542,33.50979 3.34081,-1.28199 62.15579,-36.08204 62.83268,-37.17727 0.39347,-0.63668 -5.84498,-21.29898 -14.83988,-49.151 l -3.19707,-9.89949 6.19223,-5.61683 c 8.30101,-7.5297 30.60184,-29.85867 36.41004,-36.45602 l 4.66892,-5.3033 16.90983,5.60111 c 9.3004,3.08061 17.38355,5.41932 17.96255,5.19714 0.579,-0.22219 3.70403,-6.56106 6.94451,-14.08639 13.26736,-30.81064 21.41101,-45.04352 30.39355,-53.11959 1.96075,-1.7629 3.56504,-3.53283 3.56504,-3.93316 0,-0.59457 -11.03136,-9.55385 -25.55871,-20.75787 l -2.57774,-1.98805 4.48704,-13.25737 c 7.69059,-22.72253 12.26536,-40.05101 14.07227,-53.3035 l 0.44675,-3.27658 29.48714,-5.82771 c 16.21799,-3.20523 29.9254,-5.99585 30.46089,-6.20135 1.38275,-0.53059 0.87922,-73.48003 -0.51301,-74.34051 -0.49653,-0.30685 -13.66116,-3.22573 -29.25484,-6.48639 -15.59362,-3.26066 -28.74738,-6.32378 -29.23052,-6.80692 -0.48316,-0.48315 -1.24701,-3.19263 -1.69746,-6.02107 -1.60272,-10.06356 -6.54049,-28.71861 -11.92175,-45.04078 l -5.46088,-16.56363 12.59665,-10.13583 c 20.23801,-16.28443 35.87737,-29.42866 35.87737,-30.15344 0,-0.83471 -29.78209,-52.80746 -35.58487,-62.09919 -0.44977,-0.72019 -1.55797,-1.30944 -2.46268,-1.30944 -1.64771,0 -51.85536,17.67944 -55.41307,19.51241 -1.87036,0.96363 -1.95193,0.9013 -7.73455,-5.9105 -6.29489,-7.41524 -30.20649,-31.64881 -38.72945,-39.25096 l -5.22078,-4.65673 8.63173,-27.33464 c 4.74745,-15.03406 8.48581,-27.7149 8.30748,-28.17964 -0.17834,-0.46476 -6.16804,-4.16892 -13.31045,-8.23149 -22.20824,-12.63194 -49.00693,-27.57081 -49.459,-27.57081 -0.23748,0 -9.14785,9.56329 -19.80083,21.25176 -12.95858,14.21818 -19.72303,21.13876 -20.43858,20.91035 -0.58824,-0.18779 -6.34928,-2.25814 -12.80232,-4.60079 -17.9613,-6.52052 -35.02498,-11.21582 -50.20207,-13.81377 -1.62212,-0.27768 -2.83568,-1.00466 -3.36317,-2.01472 -0.45391,-0.86916 -3.61017,-14.30821 -7.01392,-29.86456 l -6.18862,-28.28427 -34.28882,0.21955 c -33.1697,0.21239 -34.39906,0.26856 -37.66669,1.72082 -2.09647,0.93175 -3.50799,2.05554 -3.72088,2.96242 -0.60685,2.58502 -5.27733,40.85269 -5.74473,47.06956 -0.24854,3.30572 -0.80151,6.24418 -1.22882,6.52991 -0.42732,0.28572 -1.70849,0.52437 -2.84704,0.53033 -8.39546,0.0439 -59.5444,13.67984 -61.75584,16.46365 -0.38068,0.47921 -1.40104,4.68967 -2.26747,9.35657 -2.87538,15.4879 -6.99776,25.60962 -11.38705,27.95869 -4.88812,2.61605 -10.49177,-2.63886 -19.90609,-18.66723 -1.05992,-1.80458 -2.17362,-3.27907 -2.47487,-3.27664 -0.59311,0.005 -20.8201,16.62943 -72.58205,59.6555 l -33.06733,27.48656 -1.93264,-1.85158 c -1.57456,-1.50852 -6.54512,-3.15734 -26.82743,-8.8991 -13.692144,-3.87614 -25.737892,-7.13873 -26.768337,-7.2502 -1.699489,-0.18385 -2.297447,0.51988 -6.436894,7.57549 -8.344384,14.22288 -30.720121,54.16372 -31.049652,55.42385 -0.238506,0.91204 4.87297,5.91462 19.281336,18.87054 10.783232,9.69622 20.169566,18.02953 20.858515,18.51847 1.178224,0.83617 1.086392,1.38227 -1.545785,9.19239 -7.123845,21.13765 -12.753184,42.20549 -14.819429,55.46183 -0.466282,2.99151 -1.207798,5.57726 -1.647812,5.74611 -0.440014,0.16886 -13.365901,2.60912 -28.724194,5.42283 -15.358293,2.8137 -28.083269,5.26681 -28.2777231,5.45134 -0.4520576,0.42899 -0.4368695,73.55281 0.015371,74.00343 0.1860001,0.18533 13.2252031,2.77757 28.9760071,5.76055 15.750803,2.98297 28.654,5.47607 28.673771,5.54021 0.01977,0.0642 0.574938,3.96437 1.233707,8.66715 2.216615,15.82385 7.345,35.68582 13.950212,54.02844 1.890626,5.25027 3.535272,10.07109 3.654766,10.71293 0.146201,0.78533 -3.251609,3.88596 -10.38935,9.48068 -21.341802,16.72816 -33.587572,26.61898 -33.587572,27.12844 0,0.91684 37.892579,65.10793 38.433806,65.10793 0.06815,0 12.524452,-4.13658 27.680677,-9.19239 15.15623,-5.05581 27.58839,-9.19239 27.62704,-9.19239 0.0386,0 4.56068,4.85252 10.04895,10.78338 10.00236,10.80898 27.88151,27.88603 35.9009,34.29037 4.18546,3.34249 4.2665,3.47267 3.65273,5.86559 -0.34524,1.34598 -4.44353,14.16978 -9.10731,28.49732 -4.66378,14.32761 -8.3758,26.14513 -8.24892,26.26131 2.07439,1.89894 63.9025,36.43049 65.22808,36.43049 0.1856,0 8.51298,-9.14819 18.5053,-20.32931 9.99232,-11.18113 18.84905,-21.04845 19.68164,-21.92739 l 1.51379,-1.59813 6.3408,2.14911 c 20.17448,6.83758 40.11125,12.29963 54.01031,14.79699 4.43933,0.79769 8.14669,1.53046 8.23858,1.62839 0.0919,0.0979 1.3328,6.54202 2.75761,14.32019 3.07302,16.77597 8.07854,42.62659 8.58933,44.35893 0.32824,1.11313 1.9922,1.2443 18.17194,1.43246 9.79584,0.11398 26.23551,0.19891 36.5326,0.18886 l 18.72198,-0.0183 z m 175.87869,-11.0064 c 6.81247,-3.29787 15.98257,-13.48657 24.03632,-26.70636 4.97678,-8.16913 13.9495,-26.13707 19.69873,-39.44687 5.80429,-13.43729 21.0453,-52.28664 21.0453,-53.64451 0,-0.56584 -1.3435,-1.49834 -3.0052,-2.08586 -14.6668,-5.18569 -26.15896,-8.9699 -27.24043,-8.9699 -0.77518,0 -4.73548,3.77785 -9.74838,9.29926 -4.64354,5.1146 -14.09682,14.55011 -21.00729,20.96774 -10.39778,9.65632 -12.49146,11.92422 -12.14099,13.15141 0.23291,0.81557 4.37549,14.00029 9.20573,29.29939 4.83023,15.29903 8.78223,28.25514 8.78223,28.79127 0,0.53613 -6.9208,5.0959 -15.37957,10.13284 -8.45876,5.03686 -15.98649,9.61403 -16.72827,10.17145 -1.29175,0.97064 -1.22209,1.15074 1.64973,4.26632 4.22982,4.58884 9.30169,7.03048 13.87948,6.68174 1.96564,-0.14977 5.09432,-1.00834 6.95261,-1.90792 z m 96.16334,-124.44492 c 1.26745,-2.16354 8.60809,-15.18536 16.31257,-28.93738 l 14.00807,-25.00367 -1.97276,-4.12751 c -1.08506,-2.27014 -3.36031,-5.48927 -5.05617,-7.15363 -2.57104,-2.52326 -3.54345,-3.0261 -5.8523,-3.0261 -6.97377,0 -15.95305,12.3166 -27.96084,38.35303 -6.72697,14.58604 -12.77612,29.68649 -12.14505,30.31757 0.27651,0.27651 4.39462,1.85109 9.15137,3.49908 l 8.64863,2.99633 1.28102,-1.49201 c 0.70456,-0.8206 2.31802,-3.26218 3.58546,-5.42571 z M 122.46057,245.91811 c 42.42177,-34.56573 99.57096,-82.57084 99.57096,-83.63923 0,-0.46615 -1.79791,-3.36105 -3.99535,-6.43312 -5.86226,-8.19553 -30.50469,-40.2912 -31.69024,-41.27512 -0.55885,-0.46381 -1.66958,-0.63588 -2.46827,-0.38238 -0.7987,0.25349 -9.30855,8.47338 -18.91079,18.26641 -43.23631,44.09541 -44.84004,45.42505 -74.810766,62.0248 -8.555992,4.73888 -16.008477,9.04454 -16.561078,9.56814 -2.193689,2.07857 9.656874,21.35496 18.659884,30.35258 6.805083,6.80101 20.08842,18.03693 21.32363,18.03693 0.48476,0 4.48167,-2.93355 8.88202,-6.51901 z m 143.30882,-33.26626 c 1.94636,-3.14927 4.70882,-12.96302 6.16553,-21.90323 l 1.20687,-7.40696 -2.75094,-2.55624 c -1.51301,-1.40594 -2.96874,-2.56486 -3.23494,-2.57538 -0.66789,-0.0264 -9.9665,7.43191 -14.86256,11.92108 -4.68692,4.29742 -4.72937,3.64652 0.85415,13.09961 4.24286,7.18332 8.08815,11.72973 9.92083,11.72973 0.70085,0 1.91632,-1.03887 2.70106,-2.30861 z m 22.05984,-39.05506 c 13.50087,-4.25352 33.46384,-9.47438 43.4503,-11.36344 3.50017,-0.6621 6.73543,-1.55864 7.18945,-1.9923 0.45402,-0.43366 1.81625,-8.34476 3.02718,-17.58021 2.6261,-20.02864 3.32073,-28.10954 2.41628,-28.10954 -0.74441,0 -1.22664,0.3916 -35.61388,28.92087 -27.95591,23.19353 -35.5907,29.6973 -35.95824,30.63136 -0.26129,0.66406 1.90329,3.38027 2.6938,3.38027 0.25164,0 6.00944,-1.74915 12.79511,-3.88701 z m -39.9883,-31.59607 c 21.61665,-17.87457 75.65159,-63.095566 88.94241,-74.434511 7.38671,-6.301908 8.28462,-7.309184 7.91254,-8.876346 -0.76684,-3.229891 -9.36076,-20.070345 -13.0554,-25.583084 -2.00177,-2.986797 -5.51945,-7.482106 -7.81709,-9.989575 -4.07383,-4.445867 -12.23199,-10.543708 -15.27387,-11.416495 -1.27843,-0.366814 -4.29232,2.48549 -19.17865,18.15045 -36.91989,38.850983 -43.84588,44.528892 -82.18858,67.377975 -8.36154,4.982786 -15.24013,9.089046 -15.28577,9.125026 -0.0456,0.036 -0.28672,1.19477 -0.53574,2.57509 -0.42801,2.37245 0.0158,3.1264 8.11661,13.78858 4.71315,6.2034 12.70973,16.76782 17.77017,23.4765 5.06044,6.70867 9.55936,12.19317 9.99759,12.18777 0.43823,-0.005 9.70633,-7.37703 20.59578,-16.38138 z"
       id="path34" />
    <path
       style="fill:#000000;stroke-width:0.252508;stroke-linecap:round"
       d="m 235.7957,299.18004 c -2.34689,-1.18431 -5.14918,-3.07403 -6.22732,-4.19937 l -1.96025,-2.04606 6.47839,-4.73708 6.47838,-4.73707 2.57735,1.74591 c 3.38976,2.29622 6.55999,2.89237 9.82275,1.84711 7.71827,-2.47262 11.03508,-9.77367 6.40129,-14.09069 -2.27828,-2.12255 -6.70178,-1.82669 -16.12156,1.07829 -14.70918,4.53617 -20.5705,4.02701 -26.11185,-2.26829 -6.97214,-7.92078 -4.73844,-18.002 5.87737,-26.52594 8.73727,-7.01557 18.44853,-10.69652 24.16154,-9.15816 3.4877,0.93914 9.51585,4.69066 9.48532,5.90303 -0.0125,0.4947 -2.76795,2.86875 -6.12331,5.27565 l -6.10065,4.3762 -2.68736,-1.37099 c -4.34578,-2.21706 -8.39105,-1.56218 -12.07851,1.95535 -2.49815,2.38302 -3.15572,5.39741 -1.67154,7.66255 1.64848,2.51589 4.70194,2.26802 15.18705,-1.23285 7.79799,-2.60368 9.70329,-2.97602 15.37805,-3.00521 6.0968,-0.0314 6.65754,0.0929 9.54595,2.11554 1.68776,1.18187 4.07571,3.82714 5.30656,5.87838 7.18458,11.97335 0.39275,24.86182 -18.02342,34.20204 -4.80506,2.43701 -6.75294,3.03113 -10.6066,3.2351 -4.13615,0.21893 -5.24886,-0.0167 -8.98763,-1.90344 z"
       id="path35" />
    <path
       style="fill:#000000;stroke-width:0.252508;stroke-linecap:round"
       d="m 289.61748,271.30432 c 0.16198,-2.79324 0.63435,-17.32924 1.04972,-32.30223 0.41537,-14.97298 0.97262,-27.42148 1.23833,-27.66331 0.26572,-0.24184 4.45162,-1.75341 9.30201,-3.35906 8.36414,-2.76882 8.87808,-2.85554 9.96664,-1.68162 1.04391,1.12575 30.51256,36.88571 37.01677,44.91954 1.50359,1.85719 2.59762,3.51289 2.43118,3.67933 -0.16644,0.16644 -3.83648,1.56853 -8.15564,3.11576 l -7.85303,2.81313 -3.25722,-4.19437 c -1.79147,-2.3069 -3.53652,-4.19437 -3.8779,-4.19437 -0.54426,0 -16.76583,5.44787 -20.06367,6.7382 -1.02839,0.40238 -1.23743,1.39746 -1.23743,5.89028 v 5.40612 l -8.42714,2.95561 -8.42713,2.95561 z m 23.21824,-26.24399 c 7.02165,-2.64294 7.62607,-3.05666 6.77872,-4.63996 -1.66695,-3.11472 -13.49699,-18.38884 -14.24244,-18.38884 -0.59897,0 -0.67796,3.09996 -0.30132,11.8246 0.28075,6.50352 0.66336,12.07199 0.85024,12.37437 0.55801,0.90288 2.10089,0.64178 6.9148,-1.17017 z"
       id="path36" />
    <path
       style="fill:#000000;stroke-width:0.252508;stroke-linecap:round"
       d="m 284.37096,202.76287 -1.39902,-3.71231 2.58998,-1.13462 c 5.42983,-2.37869 5.7038,-2.3691 6.793,0.23771 2.32804,5.57179 2.26745,5.79507 -1.93196,7.11881 -2.0985,0.6615 -4.0039,1.20272 -4.23422,1.20272 -0.23032,0 -1.04832,-1.67054 -1.81778,-3.71231 z"
       id="path37" />
    <path
       style="fill:#000000;stroke-width:0.252508;stroke-linecap:round"
       d="m 301.60843,197.15445 c -0.59842,-2.01513 -1.08805,-3.86621 -1.08805,-4.11351 0,-0.77741 7.9115,-2.98168 8.47135,-2.36025 0.29319,0.32543 1.02226,2.07061 1.62016,3.87817 l 1.0871,3.28647 -3.88446,1.4865 c -2.13645,0.81757 -4.16201,1.4865 -4.50125,1.4865 -0.33924,0 -1.10642,-1.64875 -1.70485,-3.66388 z"
       id="path38" />
    <path
       style="fill:#000000;stroke-width:0.252508;stroke-linecap:round"
       d="m 370.27268,243.14253 c -0.25983,-7.1386 -0.67788,-17.87671 -0.929,-23.86247 l -0.45658,-10.88319 -9.68046,0.47915 -9.68046,0.47915 -0.46188,-6.50698 c -0.25404,-3.57884 -0.29467,-6.67419 -0.0903,-6.87856 0.37324,-0.37324 12.96214,-0.94197 41.52573,-1.876 l 15.37957,-0.50292 v 4.58608 c 0,2.52234 0.1926,5.54909 0.428,6.7261 l 0.42801,2.14002 -10.07333,0.519 -10.07334,0.519 0.46328,13.51605 c 0.2548,7.43382 0.66379,18.05037 0.90885,23.59232 l 0.44557,10.07627 -6.28954,0.008 c -3.45924,0.004 -7.43302,0.19694 -8.83061,0.42813 l -2.54108,0.42035 z"
       id="path39" />
    <path
       style="fill:#000000;stroke-width:0.252508;stroke-linecap:round"
       d="m 469.64296,269.51248 c -4.80326,-1.42182 -8.96824,-3.05573 -9.27949,-3.64033 -0.3106,-0.58336 -1.26671,-4.87904 -2.12469,-9.54594 -0.85798,-4.66691 -2.04037,-10.64557 -2.62752,-13.28592 -1.24788,-5.61162 -0.86373,-5.57997 -9.35223,-0.7707 l -5.62045,3.18434 -1.42399,4.72903 c -0.78319,2.60097 -1.64462,5.62978 -1.91428,6.73069 -0.26966,1.1009 -0.85859,2.14297 -1.30872,2.31571 -0.71228,0.27332 -15.21417,-3.6798 -15.85742,-4.32263 -0.13245,-0.13236 3.48317,-13.27889 8.03469,-29.21451 l 8.27551,-28.97386 6.46099,1.76858 c 3.55355,0.97271 7.29314,2.13385 8.3102,2.58031 l 1.84919,0.81174 -2.71377,9.54594 c -2.74323,9.64953 -3.25961,12.72792 -2.13504,12.72792 0.33954,0 6.30575,-3.7531 13.25825,-8.34021 l 12.6409,-8.34021 10.52519,3.01441 c 5.78885,1.65793 10.62248,3.11173 10.74142,3.23066 0.11893,0.11893 -5.09471,3.31768 -11.58585,7.10834 -6.49114,3.79066 -12.38242,7.33547 -13.09173,7.87735 -1.23457,0.94315 -1.16457,1.46358 1.6388,12.18281 2.51779,9.62727 7.02687,26.1584 8.21361,30.11267 0.51388,1.71225 -0.63856,1.55532 -10.91357,-1.48619 z"
       id="path40" />
    <path
       style="fill:#000000;stroke-width:0.252508;stroke-linecap:round"
       d="m 511.75264,291.66399 -6.89939,-4.61376 2.36949,-3.69475 c 1.30322,-2.03211 4.37442,-6.81671 6.82489,-10.63245 l 4.4554,-6.9377 -0.33856,-21.11582 -0.33857,-21.11582 4.30755,2.78981 c 2.36915,1.5344 6.00393,3.81705 8.07729,5.07255 l 3.76973,2.28274 -0.44489,12.13491 c -0.25021,6.82485 -0.17099,12.30417 0.18103,12.52174 0.34426,0.21276 5.55781,-1.93919 11.58567,-4.78211 l 10.95976,-5.16896 7.57765,4.94869 c 4.16771,2.72178 7.32211,5.17771 7.00979,5.45762 -0.31233,0.27991 -7.09092,3.29911 -15.06355,6.70934 -24.65559,10.54623 -22.11013,8.78824 -29.78384,20.56987 -3.64769,5.60039 -6.79369,10.18372 -6.99111,10.18518 -0.19743,10e-4 -3.46368,-2.07352 -7.25834,-4.61108 z"
       id="path41" />
    <path
       style="fill:#000000;stroke-width:0.252508;stroke-linecap:round"
       d="m 95.459415,496.03541 c 0,-14.37442 -0.168484,-17.32412 -0.989539,-17.32412 -0.544246,0 -3.646677,1.42657 -6.894291,3.17016 -3.247614,1.7436 -6.3025,3.17549 -6.788636,3.18198 -0.62181,0.008 -0.883883,-1.41721 -0.883883,-4.80781 v -4.81963 l 3.859248,-1.59957 c 5.226293,-2.16618 9.205051,-5.16443 11.869383,-8.94434 l 2.221275,-3.15135 h 5.167178 5.16719 v 25.80939 25.8094 h -6.36396 -6.363965 z"
       id="path42" />
    <path
       style="fill:#000000;stroke-width:0.252508;stroke-linecap:round"
       d="m 140.3607,513.62663 c -6.43767,-1.63542 -9.4724,-3.74299 -11.71264,-8.13423 l -1.39758,-2.73948 1.95891,-0.0597 c 1.07741,-0.0328 3.79383,-0.28881 6.03649,-0.56888 4.05618,-0.50654 4.08468,-0.49716 5.43201,1.78638 0.99312,1.68322 2.04439,2.42502 3.94092,2.78081 4.86037,0.91181 8.43545,-3.55542 9.27522,-11.58983 0.52316,-5.00536 0.0442,-5.35927 -3.54665,-2.62042 -7.07913,5.39951 -16.99083,3.19392 -21.9855,-4.89231 -1.89738,-3.07182 -2.14332,-4.09095 -2.14332,-8.88158 0,-4.78964 0.24595,-5.80933 2.14001,-8.87235 1.32608,-2.14449 3.45653,-4.2747 5.60141,-5.60078 3.3075,-2.04487 3.80966,-2.14001 11.29501,-2.14001 8.95581,0 11.80657,1.0283 15.95759,5.75605 4.60617,5.24613 5.31144,7.86373 5.30782,19.69979 -0.003,9.65208 -0.15478,10.94256 -1.68702,14.33973 -2.06489,4.5781 -7.28685,9.4466 -11.49598,10.71783 -3.3547,1.01318 -10.7222,1.59169 -12.9767,1.01895 z m 9.5851,-26.45102 c 2.48107,-1.32783 3.67246,-4.75076 3.36023,-9.65417 -0.23855,-3.7463 -0.6109,-4.82835 -2.21272,-6.43018 -1.5782,-1.57819 -2.55845,-1.92591 -5.42931,-1.92591 -2.82211,0 -3.85777,0.35437 -5.32571,1.82231 -3.43454,3.43454 -3.0693,13.29191 0.58741,15.85316 1.7382,1.21749 7.00548,1.41299 9.0201,0.33479 z"
       id="path43" />
    <path
       style="fill:#000000;stroke-width:0.252508;stroke-linecap:round"
       d="m 675.28697,512.06351 c 0,-2.33251 3.29062,-14.41392 5.20867,-19.12347 1.01013,-2.48027 3.91069,-7.62511 6.4457,-11.43298 2.535,-3.80787 4.60909,-7.26748 4.60909,-7.68801 0,-0.51976 -4.07589,-0.76462 -12.72792,-0.76462 h -12.72792 v -5.3033 -5.3033 h 20.50609 20.5061 v 3.85529 c 0,3.71091 -0.15938,4.03484 -4.25606,8.64986 -4.37443,4.92793 -9.4823,13.96714 -11.63405,20.58836 -0.67001,2.06172 -1.76196,6.83469 -2.42655,10.6066 l -1.20835,6.85803 -6.1474,0.2043 c -5.65152,0.18783 -6.1474,0.0953 -6.1474,-1.14676 z"
       id="path44" />
    <path
       style="fill:#000000;stroke-width:0.252508;stroke-linecap:round"
       d="m 629.67859,513.45035 c -3.21068,-0.84962 -6.15804,-2.5705 -8.22211,-4.80067 -1.93175,-2.0872 -3.74254,-5.12797 -3.31082,-5.55969 0.1369,-0.1369 2.89756,-0.52823 6.13481,-0.86961 5.62026,-0.5927 5.91145,-0.55348 6.45222,0.86886 0.80452,2.11603 2.33882,3.20761 5.14969,3.66375 2.00888,0.326 2.83598,0.0383 4.67313,-1.62521 1.77368,-1.60608 2.44476,-3.03812 3.26678,-6.97105 1.21376,-5.80726 1.30067,-7.42463 0.39897,-7.42463 -0.36307,0 -2.32371,1.03415 -4.35699,2.2981 -3.14249,1.95348 -4.35981,2.2981 -8.1178,2.2981 -3.77908,0 -4.86322,-0.31085 -7.4673,-2.14107 -1.6755,-1.17759 -4.00468,-3.50458 -5.17595,-5.17109 -1.79346,-2.55178 -2.17033,-3.83716 -2.38782,-8.14399 -0.2893,-5.72905 0.58445,-8.57137 3.81152,-12.39884 3.25553,-3.86121 8.10529,-5.71752 14.95877,-5.72568 10.38315,-0.0124 15.83278,3.19905 19.78723,11.66036 1.87637,4.01485 1.98272,4.77414 1.9807,14.14213 -0.002,9.37472 -0.10832,10.12954 -2.00528,14.23907 -2.38862,5.17465 -5.26537,8.1339 -9.89509,10.17885 -3.7128,1.63994 -12.08652,2.43182 -15.67466,1.48231 z m 11.28567,-26.65399 c 3.18509,-2.08695 4.22476,-8.9149 2.05401,-13.48943 -2.59722,-5.47323 -10.68344,-6.0962 -13.30582,-1.02509 -2.2644,4.37886 -0.95303,12.98421 2.26422,14.85808 1.88592,1.09845 7.09044,0.8995 8.98759,-0.34356 z"
       id="path45" />
    <path
       style="fill:#000000;stroke-width:0.252508;stroke-linecap:round"
       d="m 203.46971,676.48844 c -4.95873,-4.74435 -9.01575,-8.96393 -9.01561,-9.37685 1.5e-4,-0.41292 5.14241,-6.08532 11.42726,-12.60534 l 11.42699,-11.85456 3.18924,3.18923 3.18923,3.18924 -8.95937,9.2997 c -4.92766,5.11483 -8.95938,9.72113 -8.95938,10.2362 0,0.51508 2.69489,3.45786 5.98864,6.53952 l 5.98864,5.60302 -2.30999,2.23894 c -1.2705,1.23141 -2.45394,2.22274 -2.62988,2.20295 -0.17594,-0.0198 -4.37704,-3.91771 -9.33577,-8.66205 z"
       id="path46" />
    <path
       style="fill:#000000;stroke-width:0.252508;stroke-linecap:round"
       d="m 241.34931,706.9714 -3.66319,-2.7937 0.98026,-2.77835 0.98026,-2.77836 -4.23046,-3.52062 c -6.21004,-5.16805 -6.53795,-5.28421 -9.7303,-3.44693 l -2.7164,1.56336 -2.95921,-2.37809 c -1.62757,-1.30795 -2.85992,-2.67596 -2.73856,-3.04003 0.12135,-0.36408 6.85831,-4.90263 14.97102,-10.08567 l 14.75037,-9.42373 4.1646,3.2719 c 3.64512,2.86377 4.11321,3.50586 3.75264,5.14756 -0.56387,2.56725 -9.42959,32.6468 -9.68938,32.87402 -0.11465,0.10028 -1.8569,-1.07483 -3.87165,-2.61136 z m 3.11686,-21.47977 c 2.32037,-5.70249 2.81658,-8.08334 1.68472,-8.08334 -1.2785,0 -11.02969,7.48262 -11.25139,8.63381 -0.24852,1.29046 5.20976,5.72067 6.52906,5.29929 0.41553,-0.13271 1.78246,-2.76511 3.03761,-5.84976 z"
       id="path47" />
    <path
       style="fill:#000000;stroke-width:0.252508;stroke-linecap:round"
       d="m 254.20489,715.11936 c -1.94455,-1.00158 -3.62887,-1.90211 -3.74294,-2.00117 -0.18847,-0.16366 15.19663,-29.36295 15.78124,-29.95115 0.44769,-0.45043 14.47239,7.2545 17.8563,9.80994 4.20103,3.17252 5.07415,5.79677 3.39314,10.19845 -0.6634,1.73709 -2.31029,4.12776 -3.65976,5.31261 -3.5562,3.12238 -6.10579,3.10144 -13.15339,-0.10807 -2.60623,-1.18689 -5.20085,-1.9806 -5.76582,-1.7638 -0.56496,0.2168 -2.25097,2.64113 -3.74667,5.38741 -1.4957,2.74628 -2.87856,4.98055 -3.07302,4.96504 -0.19445,-0.0155 -1.94454,-0.84767 -3.88908,-1.84926 z m 23.72977,-13.00402 c 2.37946,-2.37946 1.61823,-5.49303 -1.95533,-7.99766 -3.43096,-2.4047 -4.29464,-2.08081 -6.62333,2.4838 -1.85667,3.63938 -1.73123,4.40837 0.93557,5.73559 3.17633,1.58081 5.92014,1.50121 7.64309,-0.22173 z"
       id="path48" />
    <path
       style="fill:#000000;stroke-width:0.252508;stroke-linecap:round"
       d="m 286.37825,731.16689 c -1.83823,-0.76066 -3.09557,-1.71447 -2.97736,-2.25859 0.52129,-2.3995 10.23709,-30.0032 10.74818,-30.53681 0.31794,-0.33196 4.80498,0.85667 9.9712,2.6414 13.05271,4.50922 16.06878,7.65497 13.99041,14.59193 -1.13829,3.79931 -3.9039,6.72719 -7.21893,7.64251 -2.14312,0.59174 -3.73687,0.42082 -8.63076,-0.92563 -6.89361,-1.89662 -6.1202,-2.37527 -8.83521,5.46795 -1.8349,5.30073 -2.09639,5.42604 -7.04753,3.37724 z m 21.92031,-15.57483 c 1.89722,-1.89722 1.78473,-4.64351 -0.27455,-6.70279 -2.0842,-2.0842 -6.67633,-3.12108 -7.55146,-1.70509 -0.88656,1.43447 -2.29646,7.71351 -1.8355,8.17446 0.51342,0.51342 4.60611,1.48198 6.6563,1.57525 0.87505,0.0398 2.22739,-0.56401 3.00521,-1.34183 z"
       id="path49" />
    <path
       style="fill:#000000;stroke-width:0.252508;stroke-linecap:round"
       d="m 343.30034,747.76312 c -0.38891,-0.13432 -6.31639,-1.55986 -13.17217,-3.16787 l -12.46507,-2.92366 1.35967,-6.14547 c 2.83028,-12.79241 6.10553,-26.39291 6.43534,-26.72271 0.26222,-0.26223 26.4628,5.23558 27.19223,5.70589 0.43224,0.27869 -1.37026,5.3254 -1.90204,5.3254 -0.33952,0 -4.35501,-0.80812 -8.92331,-1.79581 -6.38318,-1.38009 -8.42993,-1.59532 -8.84127,-0.92975 -0.72656,1.17559 -1.52663,5.6137 -1.09061,6.04972 0.19317,0.19317 3.79342,1.22194 8.00055,2.28615 l 7.64932,1.93492 -0.10979,2.28866 c -0.0604,1.25877 -0.25628,2.43515 -0.43531,2.61418 -0.17904,0.17903 -3.22869,-0.32115 -6.77701,-1.11153 -8.60624,-1.917 -9.87142,-1.87257 -10.72661,0.37675 -0.37929,0.99759 -0.68961,2.84375 -0.68961,4.10257 v 2.28877 l 8.63178,1.93649 c 4.74748,1.06507 8.75655,2.06125 8.90904,2.21374 0.15249,0.1525 0.0586,1.5715 -0.20865,3.15334 -0.45029,2.66525 -1.00065,3.15424 -2.83648,2.52022 z"
       id="path50" />
    <path
       style="fill:#000000;stroke-width:0.252508;stroke-linecap:round"
       d="m 364.01385,749.93976 c -5.71955,-0.44919 -10.53759,-0.96308 -10.70675,-1.14197 -0.38098,-0.4029 2.17795,-33.25177 2.62515,-33.69898 0.17786,-0.17786 5.5225,0.0189 11.87696,0.43731 6.35447,0.41838 12.42862,0.76122 13.49812,0.76187 1.83351,10e-4 1.94454,0.18315 1.94454,3.18809 v 3.18692 l -5.12652,-0.3778 c -2.81959,-0.20779 -7.13226,-0.53881 -9.58371,-0.7356 l -4.45719,-0.35781 0.21455,3.73587 0.21454,3.73588 8.13173,0.7071 8.13173,0.70711 0.22387,2.72557 0.22387,2.72556 -8.88593,-0.51252 -8.88593,-0.51252 v 4.31422 c 0,5.07269 -0.63706,4.75155 10.78338,5.43594 l 7.6014,0.45553 v 3.11393 3.11394 l -3.71231,-0.0955 c -2.04177,-0.0525 -8.39195,-0.46298 -14.1115,-0.91217 z"
       id="path51" />
    <path
       style="fill:#000000;stroke-width:0.252508;stroke-linecap:round"
       d="m 389.37869,746.52798 c -1.03254,-12.24726 -2.06664,-28.86468 -1.81001,-29.08578 0.15367,-0.13238 2.11138,-0.42097 4.35048,-0.64131 l 4.07109,-0.40062 6.60325,8.25795 c 7.04439,8.80964 9.3115,11.17118 9.83873,10.24856 0.18117,-0.31701 0.0123,-4.64505 -0.37534,-9.61786 -0.3876,-4.97281 -0.53774,-9.20846 -0.33363,-9.41257 0.44608,-0.44608 8.28975,-1.30755 8.31777,-0.91355 0.0108,0.15164 0.48331,6.48057 1.05006,14.06429 0.56675,7.58372 1.03523,15.27176 1.04106,17.08453 l 0.0106,3.29595 -4.30199,0.23959 -4.30199,0.23958 -7.40884,-9.36917 c -4.07486,-5.15304 -7.74822,-9.36916 -8.16302,-9.36916 -0.52216,0 -0.59892,3.0134 -0.24951,9.79509 l 0.50467,9.79509 -3.34115,0.45796 c -1.83763,0.25188 -3.73014,0.45796 -4.20558,0.45796 -0.56195,0 -1.01568,-1.79392 -1.29665,-5.12653 z"
       id="path52" />
    <path
       style="fill:#000000;stroke-width:0.252508;stroke-linecap:round"
       d="m 431.78666,746.86328 c -0.72238,-1.16883 -8.28266,-32.16107 -7.93115,-32.51258 0.85832,-0.85832 20.10755,-5.1226 23.12374,-5.1226 4.13803,0 7.28267,2.36411 8.4857,6.37945 0.99382,3.31708 0.0525,6.13553 -3.0167,9.03235 -2.43506,2.29831 -2.55473,3.39151 -0.43024,3.93015 0.87504,0.22186 3.81837,2.65323 6.54074,5.40303 5.51094,5.56651 5.50417,5.62299 -0.84466,7.0438 l -3.91238,0.87555 -5.39966,-5.72893 c -4.56822,-4.8468 -5.74709,-5.72842 -7.65602,-5.72557 -1.241,0.002 -2.44808,0.31357 -2.68239,0.69269 -0.23431,0.37913 0.22421,3.42713 1.01893,6.77335 0.79472,3.34621 1.44495,6.36483 1.44495,6.70804 0,0.34322 -1.35234,0.97343 -3.0052,1.40047 -1.65286,0.42705 -3.53527,0.92956 -4.18313,1.11668 -0.64786,0.18713 -1.3465,0.0675 -1.55253,-0.26588 z m 11.36756,-22.75572 c 3.54247,-1.60817 4.52368,-4.02797 2.73825,-6.75288 -1.3132,-2.00421 -3.51797,-2.24806 -8.64747,-0.95643 -3.1672,0.79751 -3.1967,0.83256 -2.74179,3.25747 0.88059,4.69395 1.6089,5.83692 3.70871,5.82031 1.07913,-0.009 3.30316,-0.62436 4.9423,-1.36847 z"
       id="path53" />
    <path
       style="fill:#000000;stroke-width:0.252508;stroke-linecap:round"
       d="m 466.69334,728.85031 c 0.002,-5.15304 0.20692,-13.36975 0.45632,-18.25936 l 0.45345,-8.89019 4.94125,-1.68224 4.94126,-1.68225 1.49672,1.80668 c 0.82319,0.99368 6.05297,7.14533 11.62172,13.67034 5.56875,6.52501 9.86442,12.109 9.54594,12.40887 -0.31849,0.29988 -2.17005,1.07777 -4.11459,1.72866 l -3.53554,1.18344 -1.81926,-2.17491 c -1.0006,-1.19619 -2.16148,-2.1749 -2.57975,-2.1749 -0.41826,0 -3.53317,1.01006 -6.92201,2.24457 l -6.16153,2.24457 0.41328,3.01522 0.41328,3.01522 -3.89612,1.45772 c -2.14287,0.80175 -4.20239,1.45773 -4.5767,1.45773 -0.40194,0 -0.67941,-3.83592 -0.67772,-9.36917 z m 14.40647,-7.96444 c 1.40867,-0.58858 2.56123,-1.49543 2.56123,-2.01523 0,-1.74399 -7.25832,-11.05675 -8.61758,-11.05675 -0.66215,0 -0.7668,10.1717 -0.12913,12.55114 0.50969,1.9019 2.48254,2.06803 6.18548,0.52084 z"
       id="path54" />
    <path
       style="fill:#000000;stroke-width:0.252508;stroke-linecap:round"
       d="m 505.31808,721.07214 c -2.6965,-4.27739 -16.02284,-27.60778 -15.84752,-27.74421 1.28846,-1.0027 6.89343,-3.89882 7.54553,-3.89882 0.47103,0 5.23278,2.06829 10.58166,4.59619 8.54411,4.03799 12.12573,5.30909 12.12573,4.30336 0,-0.16106 -2.06829,-3.94727 -4.59619,-8.4138 -2.52791,-4.46654 -4.5962,-8.27505 -4.5962,-8.46336 0,-0.18831 1.87107,-1.45698 4.15794,-2.81925 2.28686,-1.36228 7.13938,-4.83523 10.78337,-7.71767 3.644,-2.88245 9.34767,-7.3515 12.67483,-9.93123 l 6.04938,-4.69043 2.01884,2.53013 2.01884,2.53014 -4.12258,3.6579 c -2.99686,2.65906 -3.9584,3.93394 -3.52132,4.6688 0.3307,0.55599 3.93944,5.42321 8.01943,10.81605 l 7.41816,9.80517 -1.71202,1.35162 c -0.94161,0.74339 -2.52134,1.95396 -3.51051,2.69014 l -1.7985,1.33851 -8.06573,-10.1972 c -4.43615,-5.60846 -8.493,-10.19721 -9.01522,-10.19721 -0.52222,0 -2.72414,1.33988 -4.89315,2.9775 l -3.94366,2.97749 -1.26587,-1.56328 c -1.14959,-1.41969 -2.80694,-2.12009 -2.80694,-1.18622 0,0.70424 3.38791,7.01777 9.46794,17.64392 l 6.06298,10.59636 -2.63894,1.61485 c -4.62753,2.83172 -5.07529,2.76823 -15.72623,-2.22999 -5.4706,-2.56722 -10.25285,-4.66768 -10.62722,-4.66768 -1.32689,0 -0.63145,1.8167 3.56197,9.30495 2.33345,4.16688 4.24264,7.72514 4.24264,7.90724 0,0.36849 -6.03787,4.00102 -6.65035,4.00102 -0.21346,0 -0.83945,-0.71595 -1.39109,-1.59099 z"
       id="path55" />
    <path
       style="fill:#000000;stroke-width:0.252508;stroke-linecap:round"
       d="m 564.70427,680.20351 c -0.56592,-1.34291 -4.07639,-8.80263 -7.80103,-16.57715 l -6.77208,-14.13549 3.86307,-3.86308 3.86307,-3.86307 16.11165,6.93307 c 8.86141,3.81318 16.34899,7.15416 16.63906,7.42438 0.29007,0.27023 -0.89066,1.88305 -2.62384,3.58404 l -3.15124,3.09271 -2.88768,-1.30217 -2.88768,-1.30216 -3.77746,3.73053 c -5.35385,5.28735 -5.90385,6.51134 -4.37061,9.72657 l 1.23254,2.58468 -3.2044,3.2044 -3.20441,3.20441 z m 5.33241,-19.17633 c 1.4959,-1.62034 2.71981,-3.17912 2.71981,-3.46394 0,-0.48665 -12.11528,-7.025 -13.01702,-7.025 -0.9615,0 -0.26648,2.19634 2.14795,6.78772 4.17294,7.93545 4.22036,7.95699 8.14926,3.70122 z"
       id="path56" />
    <path
       style="fill:#000000;stroke-width:0.252508;stroke-linecap:round"
       d="m 363.64519,689.72974 c -75.56213,-9.15495 -140.15882,-59.71519 -167.51541,-131.11539 -8.82638,-23.03667 -12.98912,-46.1512 -12.98912,-72.12489 0,-45.4995 13.73648,-86.2275 41.69634,-123.62763 7.45155,-9.96746 24.98853,-28.0565 34.67119,-35.76263 15.54008,-12.36787 39.75191,-26.08695 57.50676,-32.58487 25.45832,-9.31725 47.94749,-12.89942 76.37812,-12.16584 31.92528,0.82375 57.96041,7.48293 86.93898,22.23697 19.51708,9.93686 35.46582,21.63808 51.7679,37.98092 31.61652,31.69557 51.43745,71.26889 58.09662,115.99237 1.94735,13.0786 1.77035,44.54748 -0.32615,57.98275 -3.35575,21.50518 -9.20093,39.78272 -19.22134,60.10408 -20.15504,40.87435 -52.2153,72.93472 -92.99845,92.99875 -23.03343,11.33172 -42.90919,17.28617 -67.17589,20.1248 -11.32782,1.32509 -35.73701,1.30455 -46.82955,-0.0394 z m 20.8135,-85.50558 c -0.0995,-55.11465 -0.37927,-80.96277 -0.87635,-80.96373 -0.40161,-7.8e-4 -2.90989,7.71489 -5.57395,17.14593 -16.41416,58.10758 -31.78602,90.66816 -46.30019,98.07274 -4.97423,2.53765 -9.24939,2.68042 -13.78696,0.46039 -17.55123,-8.58701 -31.54532,-48.3968 -44.97759,-127.95029 -1.8946,-11.22085 -3.56804,-20.52488 -3.71878,-20.67561 -0.56219,-0.56219 -68.29471,-1.18648 -74.24018,-0.68427 l -6.18718,0.52263 v 4.05635 c 0,6.39813 1.37559,18.68232 3.21998,28.75489 5.65525,30.8844 18.99003,60.32649 39.20566,86.56285 6.79784,8.82242 25.38604,27.269 34.29545,34.03417 28.88219,21.93107 60.42086,35.23268 94.39875,39.81319 11.79955,1.59068 11.80751,1.59142 18.53093,1.70712 l 6.15656,0.10595 z m 32.74523,78.87717 c 28.05233,-4.34036 53.52416,-13.86472 76.68908,-28.67539 8.77959,-5.61329 20.76209,-14.56505 23.90847,-17.86128 l 1.96708,-2.06076 -1.80252,-15.49413 C 514.27199,587.25642 503.62337,505.77256 501.47946,492.85342 l -0.52804,-3.18198 h -54.54861 c -30.00173,0 -54.71111,0.1627 -54.90973,0.36154 -0.19863,0.19885 -0.46362,5.29001 -0.58887,11.31371 l -0.22771,10.95217 4.77297,0.20909 4.77297,0.20908 v 3.14967 3.14968 h -4.94975 -4.94975 v 9.54594 9.54594 h 4.94975 4.94975 v 3.14967 3.14967 l -4.77297,0.20909 -4.77297,0.20908 -0.19674,9.72272 -0.19673,9.72272 h 4.9697 4.96971 v 3.18198 3.18198 h -4.94975 -4.94975 v 10.25305 10.25305 h 4.94975 4.94975 v 3.18198 3.18198 h -4.94975 -4.94975 v 9.54594 9.54594 h 4.94975 4.94975 v 3.14967 3.14968 l -4.77297,0.20908 -4.77297,0.20909 -0.19674,9.72271 -0.19673,9.72272 h 4.9697 4.96971 v 3.18198 3.18198 h -4.96971 -4.9697 l 0.19673,9.72272 0.19674,9.72272 4.77297,0.20908 4.77297,0.20909 v 2.76381 2.76381 l -4.77297,0.20909 -4.77297,0.20908 -0.20999,5.23712 -0.20999,5.2371 9.04882,-0.46852 c 4.97686,-0.25769 13.03121,-1.0847 17.89858,-1.83779 z M 329.5312,633.10855 c 15.531,-10.36006 32.23929,-50.91329 49.90233,-121.11961 2.489,-9.89317 4.52545,-18.88227 4.52545,-19.97576 V 490.025 h -54.09367 c -43.58146,0 -54.09367,0.17653 -54.09367,0.90838 0,1.57248 3.45928,22.15206 6.444,38.33604 7.3886,40.06293 15.02864,67.78912 23.64504,85.80943 6.70893,14.03106 11.63181,19.19593 18.29653,19.19593 2.19059,0 4.31767,-0.46161 5.37399,-1.16623 z M 533.067,621.85197 c 31.43268,-33.6578 50.41795,-78.1556 52.87975,-123.9399 l 0.4621,-8.59418 -33.51946,0.004 c -18.43571,0.002 -36.1446,0.20859 -39.35309,0.45836 -5.50479,0.42852 -5.83363,0.54685 -5.83363,2.09901 0,0.90469 1.42129,11.91491 3.15842,24.46715 4.2176,30.47572 8.20265,61.29315 11.31769,87.52254 3.12112,26.28069 2.87468,24.97343 4.53996,24.0822 0.717,-0.38372 3.57372,-3.12846 6.34826,-6.09942 z M 203.64675,479.4184 v -4.24264 h 2.7371 2.73709 l 0.48,4.24264 0.48,4.24264 h 9.51083 9.51083 v -3.88909 -3.88909 h 3.18198 3.18198 v 3.88909 3.88909 h 9.89949 9.8995 v -4.24264 -4.24264 h 2.74595 c 3.05081,0 3.59029,0.87217 3.60836,5.83363 l 0.01,2.65165 h 3.28019 3.28019 l -0.40047,-4.06587 c -0.22025,-2.23622 -1.84599,-15.36189 -3.61274,-29.16815 -3.60754,-28.19098 -6.56881,-54.83398 -9.23463,-83.08505 -0.99085,-10.50053 -2.06458,-20.68287 -2.38607,-22.62742 l -0.58454,-3.53553 -7.37607,7.42462 c -32.7036,32.91884 -53.0881,79.17639 -55.54335,126.04178 l -0.47233,9.01562 h 7.53353 7.53353 z m 78.48885,0 v -4.24264 h 2.759 2.759 l 0.49241,4.24264 0.49241,4.24264 h 9.83007 9.83007 v -4.24264 -4.24264 h 2.79314 2.79313 l 0.21207,4.06586 0.21206,4.06586 9.72272,0.19673 9.72272,0.19674 v -3.90905 -3.90904 h 3.18198 3.18198 v 3.88909 3.88909 h 9.8995 9.89949 v -4.24264 -4.24264 h 2.82843 c 2.64396,0 2.82842,0.13258 2.82842,2.03293 0,1.11811 0.19888,3.0273 0.44195,4.24264 l 0.44194,2.20971 h 8.75044 8.75045 v -52.20928 c 0,-28.71511 0.21132,-72.78554 0.4696,-97.93429 l 0.4696,-45.72501 -4.18191,5.9e-4 c -6.37387,9e-4 -18.81812,1.27994 -27.86999,2.86453 -31.42585,5.50128 -62.27737,19.30574 -88.21157,39.4701 -3.5974,2.79705 -6.54074,5.48981 -6.54074,5.9839 0,1.6986 2.87774,31.96408 4.98649,52.44359 3.85031,37.39272 10.72487,92.93338 11.6977,94.50746 0.20341,0.32912 1.94205,0.59841 3.86364,0.59841 h 3.4938 z m 131.38037,-0.17678 0.21207,-4.06586 h 2.79314 2.79314 v 4.24264 4.24264 h 9.83006 9.83007 l 0.49241,-4.24264 0.49241,-4.24264 h 2.759 2.759 v 4.24264 4.24264 h 9.8995 9.89949 v -3.88909 -3.88909 h 3.18198 3.18198 v 3.88909 3.88909 h 10.25305 10.25305 v -3.84577 -3.84575 l 3.18198,-0.47717 c 1.75009,-0.26244 3.18141,-0.83879 3.18073,-1.28076 -0.005,-3.12542 -7.71594,-45.60594 -11.37412,-62.66036 -12.58111,-58.65325 -25.49536,-85.48551 -37.98044,-78.91297 -2.41868,1.27327 -7.78642,6.87406 -10.5573,11.01563 -8.57293,12.81383 -20.09495,43.06045 -30.84197,80.96373 -7.02681,24.78265 -7.72546,27.80626 -7.619,32.97341 0.0827,4.01441 -0.0916,4.73836 -1.21138,5.0312 -1.01986,0.2667 -1.79982,2.30601 -3.54072,9.25765 -3.26893,13.05331 -4.07692,11.85589 7.84354,11.6238 l 10.07627,-0.1962 z m 104.49597,0.17678 0.48,-4.24264 h 2.73709 2.73709 v 4.24264 4.24264 h 9.8995 9.89949 v -3.88909 -3.88909 h 3.18198 3.18198 v 3.90904 3.90905 l 9.72272,-0.19674 9.72272,-0.19673 0.21206,-4.06586 0.21207,-4.06586 h 2.79314 2.79314 v 4.24264 4.24264 h 5.41106 5.41107 l -0.47517,-8.66206 c -2.36685,-43.1457 -19.20785,-84.89369 -47.534,-117.83437 -28.98082,-33.70201 -68.37952,-56.92983 -110.97529,-65.42637 -10.71684,-2.13768 -25.52811,-3.94578 -32.32234,-3.94578 h -4.77731 v 6.01041 6.0104 h 4.94975 4.94975 v 3.18198 3.18199 h -4.5962 -4.59619 v 9.89949 9.89949 h 4.59619 4.5962 v 3.18199 3.18198 h -4.96971 -4.9697 l 0.19673,9.72271 0.19674,9.72272 4.77297,0.20909 4.77297,0.20908 v 3.14967 3.14968 h -4.94975 -4.94975 v 9.89949 9.8995 h 4.94975 4.94975 v 3.14967 3.14967 l -4.77297,0.20909 -4.77297,0.20908 -0.19674,9.72272 -0.19673,9.72272 h 4.9697 4.96971 v 3.18198 3.18198 h -4.94975 -4.94975 v 9.50421 c 0,5.49122 0.29474,9.68637 0.69806,9.93563 0.38393,0.23728 2.57789,0.21874 4.87547,-0.0412 l 4.17742,-0.47262 2.62485,-9.28623 c 3.997,-14.14063 12.08058,-38.53176 16.43529,-49.59132 9.78361,-24.84723 18.21787,-38.25803 27.10212,-43.09345 10.093,-5.4933 19.34711,0.78601 27.89186,18.9258 9.66607,20.52025 18.80959,57.32435 27.96316,112.55599 1.54689,9.33381 3.14666,18.64111 3.55504,20.68288 l 0.74251,3.71231 h 5.57161 5.57161 z M 393.15137,455.82533 c 0,-0.14221 0.95256,-3.88104 2.11681,-8.30851 2.84653,-10.82498 2.88674,-10.52483 -1.4097,-10.52483 h -3.53554 v 9.54594 c 0,9.07454 0.0698,9.54594 1.41422,9.54594 0.77781,0 1.41421,-0.11635 1.41421,-0.25854 z"
       id="path57" />
  </g>
</svg>
